<svg width="24" height="24" viewBox="0 0 24 24" fill="none" xmlns="http://www.w3.org/2000/svg">
<path d="M19.704 12L11.212 3.273C11.1421 3.20267 11.0868 3.11917 11.0494 3.02734C11.012 2.93551 10.9931 2.83717 10.9939 2.738C10.9947 2.63884 11.0152 2.54082 11.0542 2.44962C11.0931 2.35843 11.1498 2.27586 11.2209 2.2067C11.2919 2.13754 11.376 2.08317 11.4683 2.04672C11.5605 2.01027 11.659 1.99248 11.7582 1.99437C11.8573 1.99626 11.9551 2.01779 12.0459 2.05772C12.1367 2.09765 12.2186 2.15519 12.287 2.227L21.287 11.477C21.4232 11.617 21.4995 11.8047 21.4995 12C21.4995 12.1953 21.4232 12.383 21.287 12.523L12.287 21.773C12.2186 21.8448 12.1367 21.9023 12.0459 21.9423C11.9551 21.9822 11.8573 22.0037 11.7582 22.0056C11.659 22.0075 11.5605 21.9897 11.4683 21.9533C11.376 21.9168 11.2919 21.8625 11.2209 21.7933C11.1498 21.7241 11.0931 21.6416 11.0542 21.5504C11.0152 21.4592 10.9947 21.3612 10.9939 21.262C10.9931 21.1628 11.012 21.0645 11.0494 20.9727C11.0868 20.8808 11.1421 20.7973 11.212 20.727L19.704 12Z" fill="#F8FAFC"/>
</svg>
